<svg width="16" height="16" viewBox="0 0 16 16" fill="none" xmlns="http://www.w3.org/2000/svg">
<g clip-path="url(#clip0_19_2)">
<path d="M11.3292 11.3291V15.2293C11.3292 15.4356 11.1614 15.6034 10.9552 15.6034H0.707438C0.501178 15.6034 0.333374 15.4356 0.333374 15.2293V4.97929C0.333374 4.77303 0.501178 4.60522 0.707438 4.60522H4.60539V10.9562C4.60539 11.1624 4.7732 11.3302 4.97946 11.3302H11.3304L11.3292 11.3291Z" fill="#4C00FF"/>
<path d="M15.6034 5.83007C15.6034 9.11274 13.6911 11.3233 11.3291 11.3303V7.19814C11.3291 7.07928 11.2813 6.96508 11.1974 6.88118L9.05437 4.73818C8.97047 4.65428 8.85627 4.6065 8.73741 4.6065H4.60522V0.707377C4.60522 0.501117 4.77303 0.333313 4.97929 0.333313H10.7616C13.5 0.333313 15.6034 2.54157 15.6034 5.83007Z" fill="#FF5252"/>
<path d="M11.1979 6.88107C11.2818 6.96497 11.3296 7.07917 11.3296 7.19804V11.3302H4.97868C4.77242 11.3302 4.60461 11.1624 4.60461 10.9562V4.60522H8.7368C8.85566 4.60522 8.96986 4.653 9.05376 4.7369L11.1979 6.88107Z" fill="black"/>
</g>
<defs>
<clipPath id="clip0_19_2">
<rect width="16" height="16" fill="white"/>
</clipPath>
</defs>
</svg>
